<svg xmlns="http://www.w3.org/2000/svg" xml:space="preserve" width="2000" height="1500" data-id="lg_g5ENgKt8D3vtqscIBC" data-version="1" viewBox="0 0 2000 1500"><path fill="#fff" stroke="transparent" d="M0 0h2000v1500H0z"/><g data-padding="20"><path fill="#001f3f" d="M1003.267 656.165a148.801 148.801 0 1 0-.104-297.495c-80.615 2.163-144.839 68.155-144.808 148.798.028 80.646 64.294 146.59 144.912 148.697M770.26 1271.401V1139.4l-132.313 36.833a84.518 84.518 0 0 1-116.034-78.676c0-17.74 5.321-33.912 14.504-47.477l212.242-291.134c22.957-31.512 55.305-66.675 123.13-66.675h256.593c67.826 0 100.07 35.163 123.13 66.783l212.138 291.13a84.834 84.834 0 0 1-101.53 126.257l-132.313-37.041v132Zm229.774-92.141 171.546-56.764-3.962-1.043c-118.229-34.851-72.212-191.165 46.12-156.314l16.173 5.425V794.112l-229.877 75.13-229.774-75.13v176.456l16.069-5.43c118.332-34.85 164.453 121.464 46.017 156.315l-3.755 1.043Zm-367.41-575.373c5.218 11.479 18.052 18.783 32.345 18.783 14.508 0 27.134-7.304 32.455-18.783l3.654-7.824H628.97Zm71.688-50.818H625.84c-5.425 0-8.66 2.295-10.435 4.278q-3.546 3.966-3.546 9.603.104 6.153 3.966 10.018 3.966 3.963 10.018 3.963h78.47c8.24 0 13.98-5.741 13.98-13.981 0-8.14-5.737-13.881-13.98-13.881m10.85-41.112H614.99c-8.14 0-13.877 5.738-13.877 13.981s5.737 13.985 13.877 13.985h100.174c8.244 0 13.877-5.74 13.877-13.985q0-6.049-3.858-10.018a13.52 13.52 0 0 0-10.019-3.963m40.904-246.576a125.841 125.841 0 0 0-214.749 88.803c0 33.911 14.089 66.887 38.193 90.051 6.26 7.512 10.019 17.531 11.37 46.957.42 9.39 7.205 15.964 17.327 15.964q7.305-.416 11.787-5.218 4.49-4.797 4.178-12.102c-1.567-34.227-7.097-52.59-20.558-68.453a92.454 92.454 0 1 1 126.469.416c-13.042 15.444-18.467 33.81-20.034 68.037-.416 9.6 6.26 16.904 15.86 17.32h.94c9.29 0 16.071-6.47 16.487-15.86 1.252-29.426 5.217-39.653 10.955-46.645a125.22 125.22 0 0 0 38.609-90.467c0-33.603-13.146-65.115-36.834-88.8M726.85 501.626"/><path fill="transparent" stroke="transparent" stroke-width="3.738" d="M484.22 187.5h1031.56v1125H484.22z"/></g></svg>